<svg width="65" height="66" viewBox="0 0 65 66" fill="none" xmlns="http://www.w3.org/2000/svg">
<path d="M62.5879 20.8184C64.1113 21.9609 65 23.7383 65 25.6426V59.1582C65 62.459 62.207 65.125 58.9062 65.125H6.09375C2.66602 65.125 0 62.459 0 59.0312V25.6426C0 23.7383 0.761719 21.9609 2.28516 20.8184C5.45898 18.2793 7.99805 16.375 23.1055 5.45703C25.2637 3.93359 29.4531 0.125 32.373 0.125H32.5C35.4199 0.125 39.6094 3.93359 41.7676 5.45703C56.875 16.375 59.4141 18.4062 62.5879 20.8184ZM38.4668 46.8438L56.875 32.498V26.6582C54.082 24.5 50.7812 22.0879 36.9434 12.0586C36.5625 11.6777 36.0547 11.2969 35.5469 10.916C34.9121 10.4082 33.5156 9.26562 32.5 8.63086C31.3574 9.26562 29.9609 10.4082 29.3262 10.916C28.8184 11.2969 28.3105 11.6777 27.9297 11.9316C13.9648 22.0879 10.791 24.5 8.125 26.6582V32.498L26.4062 46.8438C28.1836 48.2402 30.3418 48.875 32.5 48.875C34.5312 48.875 36.6895 48.2402 38.4668 46.8438Z" fill="url(#paint0_linear_33_357)"/>
<defs>
<linearGradient id="paint0_linear_33_357" x1="32.5" y1="66.5" x2="32.5" y2="-0.999999" gradientUnits="userSpaceOnUse">
<stop offset="0.165" stop-color="#48227C"/>
<stop offset="0.705" stop-color="#FF6201"/>
</linearGradient>
</defs>
</svg>
