<?xml version="1.0" encoding="UTF-8"?>
<svg id="Camada_1" data-name="Camada 1" xmlns="http://www.w3.org/2000/svg" viewBox="0 0 83.84 60.51">
  <defs>
    <style>
      .cls-1 {
        fill: #48227c;
        stroke-width: 0px;
      }
    </style>
  </defs>
  <path class="cls-1" d="M38.31,37.38c-3.91,3.92-18.87,14.56-23.47,16.25-.49.18-1.16.36-1.2.32-.01,0-.07-.21-.14-.45-.11-.4-.11-.5-.12-1.43-.01-1.53.15-2.79.6-4.84.25-1.14.53-2.28.84-3.41,10.45-10.75,25.35-27.53,25.07-35.51-.08-2.25-.98-4.14-2.6-5.47-1.87-1.53-4.19-2.06-6.54-1.48-2.99.73-5.73,3.13-8.17,7.15-.44.56-.79,1.27-1.13,2.01-.03.05-.05.11-.08.17-.43.84-.86,1.74-1.27,2.69h0c-2.96,6.29-6.4,13.56-8.37,18.92-1.07,2.92-1.97,5.63-2.7,8.09-2.97,3.07-5.75,5.82-8.01,7.96-1.3,1.23-1.36,3.29-.13,4.59.64.68,1.5,1.02,2.36,1.02.8,0,1.6-.29,2.23-.89.33-.31.8-.76,1.37-1.31-.01.78.02,1.55.07,1.98.51,3.97,2.88,7.32,7.59,6.7,2.56-.33,6.07-2.01,9.71-4.62,1.56-1.12,3.29-2.53,4.78-3.87,0,0,11.78-8.31,7.08-6.27M38.76,32.19,38.31,25.27,39.49,20.8,25.89,16.39c.65-1.36,1.2-2.52,1.6-3.38,2.45-4.53,4.38-5.24,4.8-5.34.35-.08.6-.03.88.2.08.06.21.17.22.67.11,3.18-5.66,10.98-12.74,19.16,1.66-3.81,3.45-7.58,5.24-11.31Z"/>
  <path class="cls-1" d="M82.32,51.14,83.84,39.86c-3.11,3.59-7.99,8.9-11.27,11.48-1.4,1.11-2.32,1.63-3.2,1.7-.18-.67-.2-.76-.2-2.19,0-2.7.3-4.1.74-6.98.68-4.49.76-7.12.27-9.03-.8-3.08-3.32-5.21-7.25-4.39-3.85.81-7.56,3.81-10.21,6.26-4.74,4.35-7.07,7.65-12.35,17.04-.24-.28-.32-.58-.48-1.18-.2-.74-.2-1.01-.21-2.33,0-2.21.21-4.03.86-6.97,2.65-12.07,5.75-19.3,10.21-28.99l2.38-4.97c.94-1.96-.69,1.27,1.3-2.63,1.47-2.88,1.22-2.32,1.47-2.88.26-1.05-.06-1.84-.38-2.33-.49-.75-1.29-1.27-2.2-1.42-2-.32-2.73.76-4,3.49-.67,1.43-.85,1.72-2.92,5.78-2.1,4.11-.38.7-1.13,2.31l-2.01,4.41c-2.16,4.81-1.96,4.38-3.1,7.5-3.73,10.14-5.98,18.46-6.52,24.04-.13,1.34-.13,3.79,0,4.77.38,2.99,1.55,5.37,3.3,6.72,1.45,1.12,3.32,1.54,5.54,1.25h0c.96-.09,1.73-.62,2.18-1.18,1.52-2.07,2.11-3.78,3.3-5.77,3.45-5.77,7.84-11.51,13.16-15.06,1.08-.72,2.72-1.5,2.82-1.35.02.03.03.52.02,1.1-.02,1.2-.13,2.25-.47,4.58-.75,5.15-.84,6.03-.84,8.22,0,3.31.6,5.27,2.1,6.79,1.45,1.47,3.8,2.4,6.78,1.63,1.91-.5,4.14-1.89,6.79-4.25.59-.53,3.32-3.17,4.01-3.89"/>
</svg>