<?xml version="1.0" encoding="utf-8"?>
<!-- Generator: Adobe Illustrator 28.0.0, SVG Export Plug-In . SVG Version: 6.00 Build 0)  -->
<svg version="1.1" id="Camada_1" xmlns="http://www.w3.org/2000/svg" xmlns:xlink="http://www.w3.org/1999/xlink" x="0px" y="0px"
	 viewBox="0 0 323.02 81.11" style="enable-background:new 0 0 323.02 81.11;" xml:space="preserve">
<style type="text/css">
	.st0{fill:#48227C;}
</style>
<g>
	<g>
		<path class="st0" d="M157.34,38.12c-1.52-1.42-3.86-0.92-4.96,0.59c-3.78,4.68-9.07,8.47-12.65,10.6
			c-2.98,1.76-6.3,3.25-8.32,3.75c-1.12,0.27-1.65,0.35-2.6,0.35c-2.99,0-3.93-1.93-3.51-4.99c0.03-0.25,0.06-0.46,0.06-0.46
			c0.52,0.11,1.35,0.14,2.09-0.02c2.46-0.53,5.62-1.84,8.29-3.44c3.34-2,6.05-4.76,7.48-7.6c2.54-5.05-0.41-10.16-5.82-10.11
			c-2.88,0.03-5.01,1.02-7.13,2.41c-3.45,2.26-6.09,5.46-8.25,9.33c-0.1,0.17-0.19,0.36-0.29,0.54c-0.79,0.93-2.83,3-4.93,5.1
			c-3.91,3.92-8.22,7.79-12.82,9.48c-0.49,0.18-1.16,0.36-1.2,0.32c-0.01-0.01-0.07-0.21-0.14-0.45c-0.11-0.4-0.11-0.5-0.12-1.43
			c-0.01-1.53,0.15-2.79,0.6-4.84c0.27-1.23,0.58-2.47,0.91-3.7c7.03-6.83,25.86-26.1,25.5-36.35c-0.08-2.25-0.98-4.14-2.6-5.47
			c-1.87-1.53-4.19-2.06-6.54-1.48c-4.05,0.99-7.63,5.03-10.65,12.02l0.02,0.01c-0.83,1.77-1.71,3.63-2.6,5.52
			c-5.69-0.43-10.92-0.75-15.72-0.97c0.07-0.14,0.13-0.27,0.2-0.41c1.29-2.69,6.12-11.99,6.2-12.27c0.54-1.99-0.83-3.78-2.69-4.08
			c-2.32-0.37-3.16,1.28-4.02,3.12c-0.9,1.93-5.26,10.3-6.77,13.38c-6.19-0.17-11.56-0.17-16.21-0.04c0.02-0.04,0.03-0.07,0.05-0.11
			c1.29-2.69,6.12-11.99,6.2-12.27c0.54-1.99-0.83-3.78-2.69-4.08c-2.32-0.37-3.16,1.28-4.02,3.12c-0.94,2-5.56,10.88-6.91,13.67
			c-15.61,1.02-20.51,3.53-21.28,3.98c-1.55,0.91-2.09,2.93-1.18,4.47c0.61,1.03,1.68,1.61,2.79,1.61c0.55,0,1.11-0.14,1.62-0.45
			c0.06-0.03,3.63-1.8,14.91-2.82c-1.4,3.11-2.67,6.1-3.61,8.66c-0.81,2.21-1.51,4.28-2.13,6.23c-0.18,0.18-0.34,0.38-0.46,0.6
			c-2.93,3.72-7.63,9.74-13.23,13.96c-1.04,0.68-2.13,1.1-2.58,0.98c-0.17-0.04-0.22-0.28-0.22-1.14c0-1.09,0.1-1.74,0.55-3.38
			c1.65-6.05,2.02-5.63,5.06-12.25c1.15-2.19,0.23-4.68-2.25-5.08c-1.76-0.28-2.88,0.83-3.54,2.05c-0.72,1.36-1.47,2.78-2.2,4.25
			c-0.05,0.06-0.11,0.13-0.15,0.19c-0.41,0.62-2.78,3.02-5.21,5.46c-3.91,3.92-8.22,7.79-12.82,9.48c-0.49,0.18-1.16,0.36-1.2,0.32
			c-0.01-0.01-0.07-0.21-0.14-0.45c-0.11-0.4-0.11-0.5-0.12-1.43c-0.01-1.53,0.15-2.79,0.6-4.84c0.25-1.14,0.53-2.28,0.84-3.41
			C25.28,33.1,40.18,16.32,39.9,8.34c-0.08-2.25-0.98-4.14-2.6-5.47c-1.87-1.53-4.19-2.06-6.54-1.48c-2.99,0.73-5.73,3.13-8.17,7.15
			c-0.44,0.56-0.79,1.27-1.13,2.01c-0.03,0.05-0.05,0.11-0.08,0.17c-0.43,0.84-0.86,1.74-1.27,2.69c0,0,0,0.01,0,0.01
			c-2.96,6.28-6.4,13.55-8.37,18.91c-1.07,2.92-1.97,5.63-2.7,8.09c-2.97,3.07-5.75,5.82-8.01,7.96c-1.3,1.23-1.36,3.29-0.13,4.59
			c0.64,0.68,1.5,1.02,2.36,1.02c0.8,0,1.6-0.29,2.23-0.89c0.33-0.31,0.8-0.76,1.37-1.31c-0.01,0.78,0.02,1.55,0.07,1.98
			c0.51,3.97,2.88,7.32,7.59,6.7c2.56-0.33,6.07-2.01,9.71-4.62c1.56-1.12,3.29-2.53,4.78-3.87c-0.05,0.8-0.08,1.61-0.06,2.45
			c0.29,2.33,1.29,4.02,3.03,5.11c3.62,2.27,7.83,0.47,10.69-1.57c1.68-1.2,3.77-3.14,6.48-6.01c0,0.72,0.02,1.4,0.07,1.81
			c0.51,3.97,2.88,7.32,7.59,6.7c2.55-0.33,6.07-2.01,9.71-4.62c1.79-1.28,3.84-2.97,5.45-4.47c0.2-0.18,0.41-0.39,0.64-0.61
			c-0.05,1.05-0.04,2.37,0.04,3c0.51,3.97,2.88,7.32,7.59,6.7c2.55-0.33,6.07-2.01,9.71-4.62c1.79-1.28,3.84-2.97,5.45-4.47
			c0.18-0.17,0.38-0.36,0.58-0.55c-0.05,1.04-0.03,2.32,0.05,2.94c0.51,3.97,2.88,7.32,7.59,6.7c2.56-0.33,6.07-2.01,9.71-4.62
			c1.78-1.28,3.82-2.95,5.43-4.45c0.1,0.78,0.28,1.55,0.55,2.3c1.25,3.36,4.47,5.82,8.19,6.22c2.89,0.31,5.31-0.35,7.41-1.1
			c2.56-0.91,5.51-2.32,8.23-3.93c5.94-3.83,9.73-6.42,14.16-11.85c0.79-0.99,1.07-1.65,1.07-2.54
			C158.38,39.58,158.02,38.75,157.34,38.12z M132.83,35.41c1.38-1.1,2.8-2.08,4.58-2.08c0.2,0,0.2,0,0.18,0.12
			c-0.11,0.47-0.78,1.54-1.43,2.3c-1.65,1.92-3.91,3.46-7.06,4.8c-0.46,0.2-0.65,0.27-0.92,0.37
			C129.26,39.06,131.1,36.79,132.83,35.41z M25.9,16.43c0.65-1.36,1.2-2.52,1.6-3.38c2.45-4.53,4.38-5.24,4.8-5.34
			c0.35-0.08,0.6-0.03,0.88,0.2c0.08,0.06,0.21,0.17,0.22,0.67c0.11,3.18-5.66,10.98-12.74,19.16
			C22.32,23.93,24.11,20.16,25.9,16.43z M117.09,11.98c2.47-4.58,4.41-5.3,4.83-5.4c0.35-0.09,0.6-0.03,0.88,0.2
			c0.08,0.06,0.21,0.17,0.22,0.67c0.14,4.05-6.19,12.7-13.56,21.01c1.74-4.05,3.64-8.06,5.54-12.03
			C116,14.38,116.75,12.76,117.09,11.98z M75.35,38.52c-0.06,0.07-0.12,0.14-0.17,0.21c-0.41,0.62-2.78,3.02-5.21,5.46
			c-3.91,3.92-8.22,7.79-12.82,9.48c-0.49,0.18-1.16,0.36-1.2,0.32c-0.01-0.01-0.07-0.21-0.13-0.45c-0.11-0.4-0.11-0.5-0.12-1.43
			c-0.01-1.53,0.15-2.79,0.6-4.84c1.78-8.12,5.05-16.13,8.68-24.01l0.03-0.07c4.56-0.2,9.97-0.28,16.37-0.16l-0.3,0.64
			c-1.4,3.11-2.67,6.1-3.61,8.66C76.66,34.52,75.96,36.58,75.35,38.52z M98.69,38.63c-0.02,0.03-0.05,0.06-0.08,0.1
			c-0.41,0.62-2.78,3.02-5.21,5.46c-3.91,3.92-8.22,7.79-12.82,9.48c-0.49,0.18-1.16,0.36-1.2,0.32c-0.01-0.01-0.07-0.21-0.13-0.45
			c-0.11-0.4-0.11-0.5-0.12-1.43c-0.01-1.53,0.15-2.79,0.6-4.84c1.78-8.12,5.05-16.13,8.68-24.01l0.01-0.03
			c4.79,0.18,10.06,0.47,15.84,0.89c-1.32,2.95-2.52,5.78-3.42,8.21C100.03,34.56,99.31,36.66,98.69,38.63z"/>
		<path class="st0" d="M319.77,36.91c-1.48,0-2.43,0.86-3.05,2.02c-2.45,4.57-7.69,8.35-12.52,10.25c-2.41,0.94-4.56,1.46-6.09,1.46
			c-1.17,0-2.61-0.32-4.11-0.92c-0.77-0.31-1.59-0.69-1.59-0.74c0-0.02,0.2-0.26,0.45-0.53c1.25-1.35,2.84-3.32,3.94-4.86
			c2.49-3.51,3.92-6.29,4.55-8.85c0.69-2.8,0.3-5.56-1.05-7.35c-2.56-3.41-6.95-3.1-11.22-0.96c-1.22,0.61-2.9,1.79-4.11,2.51
			c0,0,0.02-0.12,0.11-0.3c1.75-3.49-2.74-6.13-5.22-3.76c-0.64,0.61-1.05,1.28-2.06,3.35c-1,2.05-2.59,5.73-4.2,9.72
			c-0.07,0.08-0.13,0.16-0.18,0.24c-0.41,0.62-2.78,3.02-5.21,5.46c-3.91,3.92-8.22,7.79-12.82,9.48c-0.49,0.18-1.16,0.36-1.2,0.32
			c-0.01-0.01-0.07-0.21-0.13-0.45c-0.11-0.4-0.11-0.5-0.12-1.43c-0.01-1.53,0.15-2.79,0.6-4.84c0.3-1.39,0.66-2.77,1.04-4.15
			c7.81-7.09,26.06-24.79,25.59-35c-0.12-2.49-1.21-4.55-3.18-5.96c-2.1-1.51-4.57-1.97-6.94-1.29c-3.77,1.07-6.98,4.76-9.78,11.25
			c-3.08,6.56-6.88,14.48-8.99,20.23c-0.81,2.2-1.51,4.27-2.13,6.22c-0.05,0.06-0.11,0.11-0.15,0.17
			c-3.78,4.68-9.07,8.47-12.65,10.6c-2.98,1.76-6.3,3.25-8.32,3.75c-1.12,0.27-1.65,0.35-2.6,0.35c-2.99,0-3.93-1.93-3.51-4.99
			c0.03-0.25,0.06-0.46,0.06-0.46c0.52,0.11,1.35,0.14,2.09-0.02c2.46-0.53,5.62-1.84,8.29-3.44c3.34-2,6.05-4.76,7.48-7.6
			c2.54-5.05-0.41-10.16-5.82-10.11c-2.88,0.03-5.01,1.02-7.13,2.41c-3.05,2-5.46,4.72-7.47,8c-0.71,0.69-1.8,1.87-2.96,3.21
			c-3.11,3.59-7.99,8.9-11.27,11.48c-1.4,1.11-2.32,1.63-3.2,1.7c-0.18-0.67-0.2-0.76-0.2-2.19c0-2.7,0.3-4.1,0.74-6.98
			c0.68-4.49,0.76-7.12,0.27-9.03c-0.8-3.08-3.32-5.21-7.25-4.39c-3.85,0.81-7.56,3.81-10.21,6.26c-4.74,4.35-7.07,7.65-12.35,17.04
			c-0.24-0.28-0.32-0.58-0.48-1.18c-0.2-0.74-0.2-1.01-0.21-2.33c-0.01-2.21,0.21-4.03,0.86-6.97c2.65-12.07,5.75-19.3,10.21-28.99
			l2.38-4.97c0.94-1.96-0.69,1.27,1.3-2.63c1.47-2.88,1.22-2.32,1.47-2.88c0.26-1.05-0.06-1.84-0.38-2.33
			c-0.49-0.75-1.29-1.27-2.2-1.42c-2-0.32-2.73,0.76-4,3.49c-0.67,1.43-0.85,1.72-2.92,5.78c-2.1,4.11-0.38,0.7-1.13,2.31
			l-2.01,4.41c-2.16,4.81-1.96,4.38-3.1,7.5c-3.73,10.14-5.98,18.46-6.52,24.04c-0.13,1.34-0.13,3.79-0.01,4.77
			c0.38,2.99,1.55,5.37,3.3,6.72c1.45,1.12,3.32,1.54,5.54,1.25l0,0c0.96-0.09,1.73-0.62,2.18-1.18c1.52-2.07,2.11-3.78,3.3-5.77
			c3.45-5.77,7.84-11.51,13.16-15.06c1.08-0.72,2.72-1.5,2.82-1.35c0.02,0.03,0.03,0.52,0.02,1.1c-0.02,1.2-0.13,2.25-0.47,4.58
			c-0.75,5.15-0.84,6.03-0.84,8.22c0,3.31,0.6,5.27,2.1,6.79c1.45,1.47,3.8,2.4,6.78,1.63c1.91-0.5,4.14-1.89,6.79-4.25
			c0.59-0.53,3.32-3.17,4.01-3.89c0.16-0.16,0.3-0.31,0.45-0.46c0.1,0.83,0.28,1.65,0.57,2.43c1.25,3.36,4.47,5.82,8.19,6.22
			c2.89,0.31,5.31-0.35,7.41-1.1c2.56-0.91,5.51-2.32,8.23-3.93c2.55-1.65,4.71-3.06,6.69-4.58c-0.08,1.08-0.08,2.73,0.01,3.46
			c0.51,3.97,2.88,7.32,7.59,6.7c2.56-0.33,6.07-2.01,9.71-4.62c0.79-0.57,1.64-1.22,2.48-1.9c0.03,0.24,0.08,0.49,0.13,0.74
			c0.04,0.15-0.01,0.31-0.46,1.61c-4.33,12.44-6.68,20.22-6.69,22.09c0,1.69,1.22,2.87,2.59,3.17c2.14,0.47,3.61-1.06,3.89-2.62
			c0.75-4.16,3.78-12.97,5.47-17.86c0.4-1.16,0.44-1.24,0.53-1.24c2.1,0.1,3.55,0.04,6.43-0.95c2.45-0.84,5.27-2.41,7.66-4.27
			c0.56-0.44,0.31-0.52,1.13-0.06c4.45,2.54,9.21,4.15,15.77,2.24c5.79-1.68,10.38-4.58,14.32-8.39c1.69-1.63,4.04-4.77,4.73-6.33
			C323.76,39.24,321.97,36.91,319.77,36.91z M230.43,34.87c1.38-1.1,2.8-2.08,4.58-2.08c0.2,0,0.2,0,0.18,0.12
			c-0.11,0.47-0.78,1.54-1.43,2.3c-1.65,1.92-3.91,3.46-7.06,4.8c-0.46,0.2-0.65,0.27-0.92,0.37
			C226.86,38.51,228.7,36.24,230.43,34.87z M272.81,6.56c0.33-0.09,0.74-0.13,1.36,0.32c0.29,0.21,0.46,0.43,0.48,0.99
			c0.19,4.14-6.39,12.63-14.05,20.67c1.81-4.26,3.81-8.48,5.81-12.65c0.95-1.97,1.68-3.54,2.03-4.36
			C270.6,7.5,272.27,6.71,272.81,6.56z M275.34,52.67c-0.13,0.03-0.44,0.11-0.44,0.09c0-0.21,1-2.72,1.23-3.32
			c0.15-0.39,0.86-0.46,1.25-0.74c0.2-0.14,0.27-0.18,0.37-0.18c0.97,0.07,2.44,0.74,3.62,1.42
			C279.46,51.15,277.71,52.09,275.34,52.67z M287.21,44.9c-0.3,0.31-0.56,0.56-0.57,0.55c-0.01,0-0.32-0.18-0.68-0.39
			c-2.24-1.34-3.48-1.96-4.75-2.4c-0.24-0.08-0.44-0.15-0.45-0.16c0,0,0.75-1.06,1.54-2.05c2.18-2.73,4.57-4.95,7.28-6.76
			c1.92-1.28,3.5-2.03,4.83-2.3c0.2-0.04,0.34-0.07,0.44-0.07c0.22,0,0.24,0.13,0.27,0.53c0.09,1.19-0.58,3.07-1.85,5.18
			C291.63,39.79,289.39,42.69,287.21,44.9z"/>
	</g>
</g>
</svg>
