<svg width="25" height="25" viewBox="0 0 25 25" fill="none" xmlns="http://www.w3.org/2000/svg">
<path d="M24.2716 2.73438L21.2716 22.1875C21.2247 22.6562 20.9435 23.0781 20.5216 23.3125C20.2872 23.4062 20.0528 23.5 19.7716 23.5C19.5841 23.5 19.3966 23.4531 19.2091 23.3594L13.4903 20.9688L11.0997 24.5312C10.9122 24.8594 10.5841 25 10.256 25C9.74035 25 9.31847 24.5781 9.31847 24.0625V19.5625C9.31847 19.1875 9.41222 18.8594 9.59972 18.625L19.8185 5.5L6.03722 17.9219L1.2091 15.9062C0.693472 15.6719 0.318472 15.2031 0.318472 14.5938C0.271597 13.9375 0.552847 13.4688 1.06847 13.1875L22.0685 1.23438C22.5372 0.953125 23.1935 0.953125 23.6622 1.28125C24.131 1.60938 24.3653 2.17188 24.2716 2.73438Z" fill="white"/>
</svg>
