<svg width="57" height="58" viewBox="0 0 57 58" fill="none" xmlns="http://www.w3.org/2000/svg">
<path d="M48.3047 8.56641C53.6367 13.8984 56.9375 20.8809 56.9375 28.498C56.9375 43.9863 43.9883 56.6816 28.373 56.6816C23.6758 56.6816 19.1055 55.4121 14.916 53.2539L0.0625 57.0625L3.99805 42.4629C1.58594 38.2734 0.189453 33.4492 0.189453 28.3711C0.189453 12.8828 12.8848 0.1875 28.373 0.1875C35.9902 0.1875 43.0996 3.23438 48.3047 8.56641ZM28.373 51.8574C41.3223 51.8574 52.1133 41.3203 52.1133 28.498C52.1133 22.1504 49.4473 16.3105 45.0039 11.8672C40.5605 7.42383 34.7207 5.01172 28.5 5.01172C15.5508 5.01172 5.01367 15.5488 5.01367 28.3711C5.01367 32.8145 6.2832 37.1309 8.56836 40.9395L9.20312 41.8281L6.79102 50.4609L15.6777 48.0488L16.4395 48.5566C20.1211 50.7148 24.1836 51.8574 28.373 51.8574ZM41.3223 34.3379C41.957 34.7188 42.4648 34.8457 42.5918 35.2266C42.8457 35.4805 42.8457 36.877 42.2109 38.5273C41.5762 40.1777 38.7832 41.7012 37.5137 41.8281C35.2285 42.209 33.4512 42.082 29.0078 40.0508C21.8984 37.0039 17.3281 29.8945 16.9473 29.5137C16.5664 29.0059 14.1543 25.7051 14.1543 22.1504C14.1543 18.7227 15.9316 17.0723 16.5664 16.3105C17.2012 15.5488 17.9629 15.4219 18.4707 15.4219C18.8516 15.4219 19.3594 15.4219 19.7402 15.4219C20.248 15.4219 20.7559 15.2949 21.3906 16.6914C21.8984 18.0879 23.4219 21.5156 23.5488 21.8965C23.6758 22.2773 23.8027 22.6582 23.5488 23.166C22.2793 25.832 20.7559 25.7051 21.5176 26.9746C24.3105 31.6719 26.9766 33.3223 31.166 35.3535C31.8008 35.7344 32.1816 35.6074 32.6895 35.2266C33.0703 34.7188 34.4668 33.0684 34.8477 32.4336C35.3555 31.6719 35.8633 31.7988 36.498 32.0527C37.1328 32.3066 40.5605 33.957 41.3223 34.3379Z" fill="url(#paint0_linear_78_29)"/>
<defs>
<linearGradient id="paint0_linear_78_29" x1="28.5" y1="62.5" x2="28.5" y2="-5" gradientUnits="userSpaceOnUse">
<stop offset="0.165" stop-color="#48227C"/>
<stop offset="0.705" stop-color="#FF6201"/>
</linearGradient>
</defs>
</svg>
