<svg width="88" height="63" viewBox="0 0 88 63" fill="none" xmlns="http://www.w3.org/2000/svg">
<path d="M19 25.25C29.3516 25.25 37.75 33.6484 37.75 44C37.75 54.5469 29.3516 62.75 19 62.75C8.45312 62.75 0.25 54.5469 0.25 44V25.25C0.25 11.5781 11.3828 0.25 25.25 0.25C28.5703 0.25 31.5 3.17969 31.5 6.5C31.5 10.0156 28.5703 12.75 25.25 12.75C18.2188 12.75 12.75 18.4141 12.75 25.25V26.4219C14.7031 25.8359 16.6562 25.25 19 25.25ZM69 25.25C79.3516 25.25 87.75 33.6484 87.75 44C87.75 54.5469 79.3516 62.75 69 62.75C58.4531 62.75 50.25 54.5469 50.25 44V25.25C50.25 11.5781 61.3828 0.25 75.25 0.25C78.5703 0.25 81.5 3.17969 81.5 6.5C81.5 10.0156 78.5703 12.75 75.25 12.75C68.2188 12.75 62.75 18.4141 62.75 25.25V26.4219C64.7031 25.8359 66.6562 25.25 69 25.25Z" fill="white"/>
</svg>
